<svg width="38" height="38" viewBox="0 0 38 38" fill="none" xmlns="http://www.w3.org/2000/svg">
<path fill-rule="evenodd" clip-rule="evenodd" d="M0.847595 19.1197V37.7441L14.0748 37.6229L27.3021 37.5014L29.6026 36.423C32.5332 35.0494 35.1294 32.4528 36.6274 29.3986C37.8003 27.006 37.8031 26.9826 37.8031 19.3265C37.8031 11.7686 37.7861 11.6159 36.6722 9.22938C35.2005 6.07504 32.4545 3.31569 29.3659 1.88836L26.8982 0.74779L13.8729 0.621374L0.847595 0.495361V19.1197ZM26.9386 11.6123L28.3118 12.9855V18.9024C28.3118 28.1962 28.0586 28.4139 17.2449 28.4139H10.137V19.3265V10.2391H17.8512H25.5654L26.9386 11.6123Z" fill="black"/>
</svg>
