<svg width="53" height="35" viewBox="0 0 53 35" fill="none" xmlns="http://www.w3.org/2000/svg">
<path fill-rule="evenodd" clip-rule="evenodd" d="M41.6424 0.529004C43.7375 0.800417 46.5366 2.66744 47.6493 4.53548C48.6459 6.20903 50.6694 12.2543 51.4187 15.7966C52.747 22.077 52.9298 29.7285 51.8034 31.8723C50.6212 34.1219 48.1117 35.0419 45.6739 34.1195C44.2816 33.593 42.305 31.7995 36.4217 25.7254C33.7074 22.9231 32.6629 22.5741 27.0066 22.5799C19.999 22.587 19.3626 22.9242 12.7824 30.1127C8.82419 34.437 5.55336 35.5627 2.90377 33.5123C1.13267 32.1414 0.831687 31.0754 0.864058 26.2851C0.888164 22.748 1.10615 20.8735 1.97052 16.7704C4.05982 6.85452 5.91977 2.91785 9.29805 1.26124C10.9066 0.472418 11.5409 0.36365 14.5301 0.36365C17.2447 0.36365 18.4494 0.534765 20.4963 1.21076C23.9552 2.35334 29.3242 2.41839 32.0734 1.35104C34.0345 0.589659 37.3908 0.0464929 39.0596 0.220658C39.6278 0.279617 40.7901 0.418541 41.6424 0.529004ZM12.1921 5.5798C10.8302 6.16362 9.10589 8.12214 8.58416 9.6781C7.34167 13.3827 10.2272 17.5833 14.2391 17.9106C20.0107 18.3816 23.5729 12.0737 20.0796 7.56779C18.3733 5.36633 14.7939 4.46433 12.1921 5.5798ZM35.9603 5.66959C34.1293 6.61767 33.0252 7.91036 32.4852 9.7374C31.8612 11.8494 32.2352 13.7537 33.6303 15.5672C35.6311 18.1688 40.0369 18.7499 42.5928 16.7498C44.1559 15.5262 45.4332 13.1838 45.4229 11.5583C45.4077 9.1756 43.4025 6.29069 41.1895 5.46798C39.7897 4.94752 37.1587 5.04883 35.9603 5.66959ZM16.5033 8.34001C16.5033 9.40296 16.5815 9.47785 17.7947 9.57679L19.0861 9.68183L19.1894 11.4394L19.2927 13.1966L17.9841 13.303C16.7396 13.404 16.6703 13.4721 16.5677 14.6967L16.4596 15.9843L14.6737 15.8827L12.8874 15.781L12.8709 14.5951C12.8554 13.5057 12.7573 13.3952 11.6656 13.2397C10.4916 13.0723 10.4768 13.0493 10.4768 11.376V9.68183L11.7682 9.57679C12.9756 9.47819 13.0596 9.39958 13.0596 8.36238C13.0596 7.75246 13.1261 7.18795 13.2073 7.10798C13.289 7.02801 14.0638 7.01785 14.9292 7.08562C16.4592 7.20523 16.5033 7.24047 16.5033 8.34001ZM38.0647 7.59524C38.7345 8.16212 39.0021 8.70935 39.0021 9.51241C39.0021 10.3155 38.7345 10.8627 38.0647 11.4296C36.9073 12.4095 35.8146 12.4383 34.6293 11.5207C33.9292 10.9793 33.7219 10.5198 33.7219 9.51241C33.7219 7.12526 36.211 6.02639 38.0647 7.59524ZM43.1456 11.2314C44.9583 12.6342 43.7737 15.9504 41.4595 15.9504C40.4474 15.9504 38.5431 14.2969 38.5431 13.4183C38.5431 12.6572 39.468 10.966 39.9994 10.7556C40.975 10.3693 42.2888 10.5679 43.1456 11.2314Z" fill="black"/>
</svg>
