<svg width="51" height="62" viewBox="0 0 51 62" fill="none" xmlns="http://www.w3.org/2000/svg">
<path fill-rule="evenodd" clip-rule="evenodd" d="M21 7.216V14.432L15.702 9.2L10.405 3.968L7.501 6.999L4.598 10.03L10.015 15.515L15.432 21H7.716H0V25V29H7.716H15.432L10.015 34.485L4.598 39.97L7.506 43.006L10.414 46.042L17.981 38.519L25.547 30.997L33.001 38.501L40.456 46.006L43.451 43.01L46.447 40.015L41.007 34.508L35.568 29H43.284H51V25V21L43.25 20.962L35.5 20.924L40.75 16.026C43.638 13.332 46 10.734 46 10.251C46 9.769 44.712 8.141 43.139 6.633L40.277 3.891L36.045 8.946C33.718 11.726 31.406 14 30.907 14C30.408 14 30 10.85 30 7V0H25.5H21V7.216ZM21 52V62H25.5H30V52V42H25.5H21V52Z" fill="black"/>
</svg>
